<?xml version="1.0" encoding="UTF-8"?>
<svg width="800px" height="800px" viewBox="0 0 16 16" xmlns="http://www.w3.org/2000/svg">

    <g fill="#888">
        <path d="m 3 0 c -1.660156 0 -3 1.339844 -3 3 v 7 c 0 1.660156 1.339844 3 3 3 h 10 c 1.660156 0 3 -1.339844 3 -3 v -7 c 0 -1.660156 -1.339844 -3 -3 -3 z m 0 2 h 10 c 0.554688 0 1 0.445312 1 1 v 7 c 0 0.554688 -0.445312 1 -1 1 h -10 c -0.554688 0 -1 -0.445312 -1 -1 v -7 c 0 -0.554688 0.445312 -1 1 -1 z m 2 12 c -1.105469 0 -2 0.894531 -2 2 h 10 c 0 -1.105469 -0.894531 -2 -2 -2 z m 0 0"/>

        <path transform="scale(.55) translate(7,3.5)" d="m 12.277344 0.832031 c -0.578125 0.007813 -1.167969 0.230469 -1.691406 0.753907 l -9 9 c -0.375 0.375 -0.585938 0.882812 -0.585938 1.414062 v 3 h 3 c 0.53125 0 1.039062 -0.210938 1.414062 -0.585938 l 9 -9 c 1.789063 -1.789062 0.082032 -4.390624 -1.890624 -4.570312 c -0.082032 -0.011719 -0.164063 -0.011719 -0.246094 -0.011719 z m -1.777344 3.605469 l 1.0625 1.0625 l -7.0625 7.0625 l -1.0625 -1.0625 z m 0 0"/>
    </g>
</svg>
